<svg width="176" height="38" viewBox="0 0 176 38" fill="none" xmlns="http://www.w3.org/2000/svg">
<path d="M3.67757e-06 0.726861C2.05929e-06 1.46019 3.67757e-06 0.726861 2.05929e-06 1.46019C-2.82689e-06 2.02582 5.43325e-06 2.02582 5.59928e-06 2.59145C2.05929e-06 3.36919 8.82741e-06 3.36919 8.82741e-06 3.86412L3.67757e-06 4.07351V10.9742C3.67757e-06 17.7146 4.0148e-06 17.722 3.94729e-06 18.0402C4.0148e-06 19.0654 3.81243e-06 19.0725 3.81243e-06 19.8078C3.81243e-06 20.3075 3.74509e-06 20.3027 3.81243e-06 20.9037L3.67757e-06 21.4195V27.3209V33.2318V34.0142C3.67757e-06 34.0142 3.67757e-06 34.0142 5.56557e-06 34.797C5.56557e-06 35.6101 7.45356e-06 35.6899 5.56557e-06 36.3616C0.71647 36.3616 0.721497 36.3616 2.26252 36.3616H3.23352H9.71941C16.6107 36.3616 17.2234 36.3333 19.3257 35.8808C21.4185 35.4283 23.9073 34.3724 25.3779 33.3166C26.0567 32.8264 26.0688 32.8527 26.5991 32.4991C27.3415 31.9335 27.1314 32.0891 27.5745 31.7214C27.9424 31.3325 27.5745 31.7214 28.3667 30.873C28.8969 30.1659 28.8943 30.1491 29.2996 29.6777C29.8841 29.0084 34.3526 23.682 38.1329 19.157C45.0241 10.9082 45.7689 10.1258 47.6543 9.18303C49.125 8.44771 50.2468 8.22146 52.0851 8.29688C54.5456 8.39115 56.5441 9.2396 58.3542 10.9648C58.7407 11.3324 59.1555 11.6812 59.2686 11.7472C60.0416 12.1526 61.0315 11.323 60.8618 10.4086C60.7864 9.99377 60.315 9.45642 59.3629 8.69282C57.1946 6.9488 54.8001 5.99665 52.2548 5.85524C49.6717 5.71384 47.4186 6.33603 45.2975 7.7501C43.8175 8.73996 43.4027 9.18303 38.7362 14.7733C35.4556 18.7045 30.0632 25.1244 28.6209 26.8307C28.2532 27.2644 27.7819 27.83 27.5745 28.0751C27.2068 28.5276 27.2708 28.469 26.5991 29.2468C25.3779 30.4119 23.8416 31.6153 25.0082 30.7315C25.892 29.9892 24.5483 30.9787 24.1147 31.2615C22.6912 32.1948 21.0414 32.9112 19.288 33.3449C17.0066 33.9199 16.6861 33.9388 9.60629 33.9765L3.14868 34.0142H2.26252C2.45107 34.1273 2.20596 33.8822 2.26252 34.0142L2.26252 33.1092V27.2832V21.4572L2.26252 20.9744C2.26252 20.232 2.261 20.2273 2.261 19.5957C2.261 18.9452 2.261 19.631 2.261 18.4644C2.26252 17.8372 2.26252 17.8372 2.26252 17.8372V10.9931V4.14893V3.07423C2.18711 3.22506 2.46992 2.94225 2.26252 3.07423H3.30894L10.1154 3.11194L16.9218 3.14022L18.0625 3.39475C21.3714 4.12064 23.9356 5.60071 26.1887 8.07063L26.9711 8.91907L27.7657 10.086C28.296 11.0759 27.7657 10.086 28.4374 11.5355C29.0737 13.091 29.1017 13.1047 29.2996 13.9155L29.3751 14.2266L29.837 13.6798C30.0821 13.3687 30.4592 12.9445 30.6666 12.7277L31.0437 12.3317L30.742 11.4644C30.4875 10.7385 30.4642 10.7138 30.311 10.2982C30.0636 9.62647 30.0821 9.65004 29.837 9.13155C29.3565 8.38916 29.837 9.13155 29.1444 8.07063C28.5643 7.21276 28.8754 7.62755 28.5643 7.21276C27.9893 6.44915 26.6883 5.12935 25.8682 4.47888C23.238 2.39547 20.0987 1.15109 16.6295 0.821135C16.045 0.764572 12.9435 0.726861 9.41774 0.726861H3.24295H2.26252C0.898256 0.726861 0.933608 0.726861 3.67757e-06 0.726861Z" fill="white"/>
<path d="M49.9595 0.0720333C48.9885 0.166305 48.3286 0.288859 47.1973 0.599955C44.8782 1.241 43.0588 2.18372 41.1262 3.72978C40.2495 4.42739 40.2657 4.41899 39.8061 4.77251C38.9173 5.55128 39.3819 5.05532 38.5334 5.90377C38.2506 6.25729 38.1799 6.22194 37.7557 6.78757L37.2045 7.48179L35.5548 9.45207C34.6497 10.5362 33.6316 11.7429 33.2922 12.1388C32.9529 12.5348 31.1994 14.637 29.38 16.8053C22.8281 24.6487 22.2342 25.2991 20.8012 26.3361C19.4343 27.3071 17.6149 28.0236 15.918 28.2593C15.5126 28.3064 13.5329 28.3535 11.506 28.3535H11.4495C9.4554 28.3535 7.83888 26.737 7.83888 24.7429C7.83888 21.1606 7.82709 21.1795 7.82709 20.7977C7.82709 19.8078 7.83888 19.8129 7.83888 19.0705C7.83888 18.6816 7.83888 18.717 7.83888 18.3634L7.83888 17.9082V13.2229V12.8649C7.83888 10.4863 9.77808 8.564 12.1565 8.58477C16.9078 8.62248 17.0115 8.63191 18.5953 9.30124C20.0753 9.92343 21.6968 11.2055 22.6018 12.4782C23.8274 14.2034 24.525 16.6639 24.525 19.3035C24.525 19.8132 24.7935 19.8858 25.1112 19.4872C25.1417 19.449 25.1726 19.4096 25.2037 19.3695C25.496 18.9924 25.9767 18.4079 26.269 18.0591C26.6042 17.6581 26.748 17.1309 26.6629 16.6153L26.6366 16.4565C26.4387 15.1555 25.9296 13.6095 25.3546 12.5159C23.7048 9.39551 20.9144 7.30267 17.2189 6.42595C16.6627 6.29397 15.7954 6.25626 11.4778 6.22798C7.69747 6.1997 6.33053 6.21855 6.13256 6.29397C5.98172 6.35996 5.77433 6.5485 5.67063 6.71819C5.49151 7.01043 5.48208 7.18012 5.48208 12.4782C5.48208 17.814 5.47266 17.8281 5.47266 18.1463C5.47266 18.9594 5.47265 18.9594 5.47266 19.4543C5.47266 20.0553 5.47266 20.0553 5.47266 20.5502L5.47266 21.1795L5.50094 25.5725L5.52613 29.4943C5.5281 29.8004 5.65933 30.0914 5.88745 30.2955C6.11764 30.5076 6.41976 30.6242 6.7327 30.622L11.4495 30.5878C16.3705 30.5595 16.7004 30.5501 17.5017 30.3521C19.9622 29.777 21.8759 28.7495 23.7237 27.0243C24.3836 26.4021 27.9753 22.1882 34.8949 13.93C35.9601 12.6573 37.3176 11.0358 37.9115 10.3194L38.9957 9.02785L40.0182 7.84812C40.5838 7.21179 40.5131 7.24714 40.9727 6.85827C41.5646 6.35745 41.6164 6.35996 42.9079 5.36068C45.4721 3.37155 48.8093 2.32513 52.1937 2.45711C55.4932 2.58909 58.5759 3.71092 61.1212 5.70006C61.602 6.07714 61.5461 6.11748 61.8303 6.36334C61.5771 6.08053 62.1485 6.63859 61.8303 6.36334C61.6087 6.11588 62.1551 6.64433 61.8303 6.36334C61.9623 6.47755 62.0454 6.54564 62.1355 6.60285C62.5141 6.84317 63.0261 6.94535 63.3755 6.66434C63.4938 6.56921 63.5998 6.44683 63.6903 6.3017C63.9292 5.91848 63.9239 5.63798 63.682 5.25661C63.6303 5.17515 63.4608 4.91211 63.3989 4.8381L62.969 4.32369L62.507 3.89004C61.4512 2.90019 58.9341 1.52382 57.0393 0.88277C54.7767 0.128597 52.4105 -0.144792 49.9595 0.0720333Z" fill="white"/>
<path d="M38.8373 20.9482L38.0171 21.9192L38.413 22.6639C39.5066 24.6719 40.4493 25.9728 41.8257 27.3586C43.5697 29.1309 45.1346 30.1491 47.086 30.7807C48.6981 31.3086 49.3957 31.4123 51.2057 31.4029C53.4305 31.4029 54.9483 31.0541 56.7677 30.1396C58.1724 29.4232 60.0578 27.8677 60.7366 26.8496C60.9817 26.4725 61.0194 26.3499 60.9817 25.954C60.9251 25.3412 60.4538 24.8604 59.907 24.8604C59.4639 24.8604 59.2565 25.0018 58.3703 25.9351C57.9838 26.3405 57.3899 26.8873 57.0505 27.1418C56.2021 27.7923 54.7315 28.4899 53.6096 28.7916C52.7706 29.0084 52.4878 29.0367 51.1114 29.0367C49.7351 29.0367 49.4522 29.0084 48.6415 28.7916C46.8598 28.3202 45.3137 27.4341 43.9091 26.086C42.561 24.7944 41.5617 23.4181 40.3645 21.2027C39.9874 20.5239 39.6763 19.9583 39.6668 19.9677C39.6668 19.9677 39.2898 20.4108 38.8373 20.9482Z" fill="white"/>
<path d="M35.7406 24.7817L34.2559 26.62L35.4578 28.3522L36.6598 29.9784C38.887 32.9126 41.8212 34.7381 43.5183 35.4933C46.7754 36.9427 47.6191 36.9074 49.6342 37.1548C52.1086 37.2255 52.3914 37.2609 54.3713 36.9781C56.674 36.6491 57.7649 36.0236 59.634 35.1421C61.0387 34.4257 62.9241 32.8702 63.6029 31.8521C63.848 31.475 63.8857 31.3054 63.848 30.9094C63.7914 30.2967 63.3201 29.8159 62.7733 29.8159C62.3302 29.8159 62.1862 30.035 61.3001 30.9683C60.9135 31.3736 60.2562 31.8427 59.9169 32.0973C59.0684 32.7477 57.6235 33.5136 56.5275 33.9025C55.6791 34.1853 55.3256 34.2913 54.265 34.5741C52.8156 34.7863 52.7449 34.857 51.3308 34.8923C49.7753 34.7863 49.0683 34.8923 46.4169 34.0792C44.8614 33.5843 43.6241 33.1954 41.6091 31.4985C41.1495 31.145 40.4424 30.6501 37.8618 27.6452C37.8618 27.6452 36.377 25.7008 35.7406 24.7817Z" fill="white"/>
<path d="M73.1512 28.6023V11.8023H78.3352C83.5672 11.8023 86.1832 16.0023 86.1832 20.2023C86.1832 24.4023 83.5672 28.6023 78.3352 28.6023H73.1512ZM76.0072 25.8903H78.3592C81.6232 25.8903 83.2312 23.0343 83.2312 20.2023C83.2312 17.3463 81.6232 14.5143 78.3592 14.5143H76.0072V25.8903ZM85.4718 28.6023L90.4158 11.8023H93.7518L99.1038 28.6023H96.1278L95.5038 26.4183H88.9758L88.3998 28.6023H85.4718ZM89.6958 23.7063H94.7118L92.0958 14.6583L89.6958 23.7063ZM107.8 28.8423C103.696 28.8423 100.072 25.9383 99.496 21.4263H98.008V18.7143H99.544C100.216 14.3463 103.96 11.5623 107.848 11.5623C110.872 11.5623 113.32 12.7383 115.048 15.0663L112.768 16.9143C111.568 15.3303 110.008 14.3703 107.824 14.3703C105.448 14.3703 103.144 16.0263 102.544 18.7143H115.624V21.3063C115.624 25.0023 112.744 28.8423 107.8 28.8423ZM102.472 21.4263C102.976 24.2823 105.232 26.0343 107.944 26.0343C110.368 26.0343 112.72 24.5463 112.72 21.4263H102.472ZM124.846 28.8423C120.382 28.8423 116.35 25.4103 116.35 20.1783C116.35 14.9943 120.43 11.5623 124.894 11.5623C127.654 11.5623 130.126 12.7383 131.686 15.0663L129.406 16.9143C128.374 15.3303 126.814 14.3703 124.894 14.3703C121.966 14.3703 119.302 16.6263 119.302 20.1783C119.302 23.7783 121.918 26.0343 124.894 26.0343C126.742 26.0343 128.374 25.2663 129.406 23.5623L131.59 25.5063C129.958 27.7623 127.558 28.8423 124.846 28.8423ZM140.48 28.8423C135.968 28.8423 131.936 25.4343 131.936 20.2023C131.936 15.0183 135.968 11.5623 140.48 11.5623C144.968 11.5623 149.024 15.0183 149.024 20.2023C149.024 25.4343 144.968 28.8423 140.48 28.8423ZM134.888 20.2023C134.888 23.8023 137.504 26.0343 140.48 26.0343C143.432 26.0343 146.072 23.8023 146.072 20.2023C146.072 16.6503 143.432 14.3703 140.48 14.3703C137.504 14.3703 134.888 16.6503 134.888 20.2023ZM149.989 28.6023L151.789 14.5143H149.989V11.8023H155.341C160.669 11.8023 163.189 15.8343 163.189 19.9623C163.189 24.2343 160.477 28.6023 155.341 28.6023H149.989ZM153.205 25.8903H155.365C158.509 25.8903 160.237 22.8663 160.237 19.9383C160.237 17.1783 158.701 14.5143 155.365 14.5143H154.645L153.205 25.8903ZM164.745 28.6023V11.8023H175.377V14.5143H167.601V18.7143H173.769V21.4263H167.601V25.8903H175.377V28.6023H164.745Z" fill="white"/>
</svg>
